<svg xmlns="http://www.w3.org/2000/svg" viewBox="0 0 800 450" width="800" height="450" role="img" aria-label="Finespresso - Multi-Agent RL Trading Swarm">
  <defs>
    <linearGradient id="bg" x1="0" y1="0" x2="1" y2="1">
      <stop offset="0%" stop-color="#0ea5e9"/><stop offset="100%" stop-color="#6366f1"/>
    </linearGradient>
    <linearGradient id="fade" x1="0" y1="0" x2="0" y2="1">
      <stop offset="0%" stop-color="#000" stop-opacity="0"/><stop offset="100%" stop-color="#000" stop-opacity=".45"/>
    </linearGradient>
    <pattern id="grid" width="40" height="40" patternUnits="userSpaceOnUse">
      <path d="M40 0 H0 V40" fill="none" stroke="#fff" stroke-opacity=".12" stroke-width="1"/>
    </pattern>
  </defs>
  <rect width="800" height="450" fill="url(#bg)"/>
  <rect width="800" height="450" fill="url(#grid)"/>
  <circle cx="700" cy="70" r="150" fill="#fff" opacity=".08"/>
  <circle cx="90" cy="410" r="110" fill="#000" opacity=".10"/>
  <rect width="800" height="450" fill="url(#fade)"/>
  <g transform="translate(560,120) scale(1.05)"><g opacity=".85"><rect x="0" y="120" width="26" height="60" rx="6" fill="#fff" opacity=".55"/><rect x="38" y="72" width="26" height="108" rx="6" fill="#fff" opacity=".75"/><rect x="76" y="30" width="26" height="150" rx="6" fill="#fff" opacity=".95"/><rect x="114" y="90" width="26" height="90" rx="6" fill="#fff" opacity=".65"/><path d="M8 108 L50 60 L88 18 L126 70" stroke="#fff" stroke-width="5" fill="none" stroke-linecap="round" stroke-linejoin="round"/></g></g>
  <g transform="translate(56,300)">
    <rect x="0" y="-46" width="212" height="30" rx="15" fill="#000" opacity=".28"/>
    <text x="14" y="-25" font-family="Segoe UI,Helvetica,Arial,sans-serif" font-size="15" letter-spacing="2" fill="#fff" opacity=".9">REINFORCEMENT LEARNING</text>
    <text x="0" y="24" font-family="Segoe UI,Helvetica,Arial,sans-serif" font-size="52" font-weight="700" fill="#fff">Finespresso</text>
    <text x="0" y="66" font-family="Segoe UI,Helvetica,Arial,sans-serif" font-size="26" fill="#fff" opacity=".9">Multi-Agent RL Trading Swarm</text>
  </g>
</svg>